<svg width="1838" height="1109" xmlns="http://www.w3.org/2000/svg" xmlns:xlink="http://www.w3.org/1999/xlink" overflow="hidden"><defs><clipPath id="clip0"><rect x="1627" y="169" width="1838" height="1109"/></clipPath><clipPath id="clip1"><rect x="1631" y="171" width="1829" height="1103"/></clipPath><clipPath id="clip2"><rect x="1631" y="171" width="1829" height="1103"/></clipPath><clipPath id="clip3"><rect x="1762" y="222" width="1310" height="949"/></clipPath><clipPath id="clip4"><rect x="1631" y="171" width="1829" height="1103"/></clipPath><clipPath id="clip5"><rect x="1762" y="222" width="1310" height="949"/></clipPath><clipPath id="clip6"><rect x="1631" y="171" width="1829" height="1103"/></clipPath><clipPath id="clip7"><rect x="1762" y="222" width="1310" height="949"/></clipPath><clipPath id="clip8"><rect x="1631" y="171" width="1829" height="1103"/></clipPath><clipPath id="clip9"><rect x="1631" y="171" width="1829" height="1103"/></clipPath><clipPath id="clip10"><rect x="1631" y="171" width="1829" height="1103"/></clipPath><clipPath id="clip11"><rect x="1631" y="171" width="1829" height="1103"/></clipPath><clipPath id="clip12"><rect x="1631" y="171" width="1829" height="1103"/></clipPath><clipPath id="clip13"><rect x="1631" y="171" width="1829" height="1103"/></clipPath><clipPath id="clip14"><rect x="1631" y="171" width="1829" height="1103"/></clipPath><clipPath id="clip15"><rect x="1631" y="171" width="1829" height="1103"/></clipPath><clipPath id="clip16"><rect x="1631" y="171" width="1829" height="1103"/></clipPath><clipPath id="clip17"><rect x="1631" y="171" width="1829" height="1103"/></clipPath><clipPath id="clip18"><rect x="1631" y="171" width="1829" height="1103"/></clipPath><clipPath id="clip19"><rect x="1631" y="171" width="1829" height="1103"/></clipPath><clipPath id="clip20"><rect x="1631" y="171" width="1829" height="1103"/></clipPath><clipPath id="clip21"><rect x="1631" y="171" width="1829" height="1103"/></clipPath><clipPath id="clip22"><rect x="1631" y="171" width="1829" height="1103"/></clipPath><clipPath id="clip23"><rect x="1631" y="171" width="1829" height="1103"/></clipPath><clipPath id="clip24"><rect x="1631" y="171" width="1829" height="1103"/></clipPath><clipPath id="clip25"><rect x="1631" y="171" width="1829" height="1103"/></clipPath><clipPath id="clip26"><rect x="1631" y="171" width="1829" height="1103"/></clipPath><clipPath id="clip27"><rect x="1631" y="171" width="1829" height="1103"/></clipPath><clipPath id="clip28"><rect x="1631" y="171" width="1829" height="1103"/></clipPath><clipPath id="clip29"><rect x="1631" y="171" width="1829" height="1103"/></clipPath><clipPath id="clip30"><rect x="1631" y="171" width="1829" height="1103"/></clipPath><clipPath id="clip31"><rect x="1631" y="171" width="1829" height="1103"/></clipPath><clipPath id="clip32"><rect x="1631" y="171" width="1829" height="1103"/></clipPath><clipPath id="clip33"><rect x="1631" y="171" width="1829" height="1103"/></clipPath><clipPath id="clip34"><rect x="1631" y="171" width="1829" height="1103"/></clipPath><clipPath id="clip35"><rect x="1631" y="171" width="1829" height="1103"/></clipPath><clipPath id="clip36"><rect x="1631" y="171" width="1829" height="1103"/></clipPath><clipPath id="clip37"><rect x="1631" y="171" width="1829" height="1103"/></clipPath></defs><g clip-path="url(#clip0)" transform="translate(-1627 -169)"><rect x="1632" y="172" width="1828" height="1102" fill="#FFFFFF" fill-opacity="1"/><g clip-path="url(#clip1)"><path d="M1762.5 1010.53 3068.5 1010.53M1762.5 852.528 3068.5 852.528M1762.5 695.523 3068.5 695.523M1762.5 537.518 3068.5 537.518M1762.5 379.513 3068.5 379.513M1762.5 222.5 3068.5 222.5" stroke="#D9D9D9" stroke-width="3.4375" stroke-linecap="butt" stroke-linejoin="round" stroke-miterlimit="10" stroke-opacity="1" fill="none" fill-rule="nonzero"/></g><g clip-path="url(#clip2)"><path d="M1762.5 1167.5 3068.5 1167.5" stroke="#D9D9D9" stroke-width="3.4375" stroke-linecap="butt" stroke-linejoin="round" stroke-miterlimit="10" stroke-opacity="1" fill="none" fill-rule="evenodd"/></g><g clip-path="url(#clip3)"><path d="M1817 727.024 1926.06 608.02 2035.07 727.024 2143.07 608.02 2252.07 293 2361.08 380.012 2470.08 482.016 2579.08 601.02 2688.09 703.023 2797.09 656.022 2905.1 742.024 3014 876" stroke="#4472C4" stroke-width="10.3125" stroke-linecap="round" stroke-linejoin="round" stroke-miterlimit="10" stroke-opacity="1" fill="none" fill-rule="nonzero"/></g><g clip-path="url(#clip4)"><path d="M1827.17 726.375C1827.17 732.45 1822.24 737.375 1816.17 737.375 1810.09 737.375 1805.17 732.45 1805.17 726.375 1805.17 720.3 1810.09 715.375 1816.17 715.375 1822.24 715.375 1827.17 720.3 1827.17 726.375Z" stroke="#4472C4" stroke-width="3.4375" stroke-linecap="butt" stroke-linejoin="round" stroke-miterlimit="10" stroke-opacity="1" fill="#4472C4" fill-rule="nonzero" fill-opacity="1"/><path d="M1936.17 608.375C1936.17 614.45 1931.24 619.374 1925.17 619.374 1919.09 619.374 1914.17 614.45 1914.17 608.375 1914.17 602.3 1919.09 597.375 1925.17 597.375 1931.24 597.375 1936.17 602.3 1936.17 608.375Z" stroke="#4472C4" stroke-width="3.4375" stroke-linecap="butt" stroke-linejoin="round" stroke-miterlimit="10" stroke-opacity="1" fill="#4472C4" fill-rule="nonzero" fill-opacity="1"/><path d="M2045.17 726.375C2045.17 732.45 2040.24 737.375 2034.17 737.375 2028.09 737.375 2023.17 732.45 2023.17 726.375 2023.17 720.3 2028.09 715.375 2034.17 715.375 2040.24 715.375 2045.17 720.3 2045.17 726.375Z" stroke="#4472C4" stroke-width="3.4375" stroke-linecap="butt" stroke-linejoin="round" stroke-miterlimit="10" stroke-opacity="1" fill="#4472C4" fill-rule="nonzero" fill-opacity="1"/><path d="M2154.17 608.375C2154.17 614.45 2149.24 619.374 2143.17 619.374 2137.09 619.374 2132.17 614.45 2132.17 608.375 2132.17 602.3 2137.09 597.375 2143.17 597.375 2149.24 597.375 2154.17 602.3 2154.17 608.375Z" stroke="#4472C4" stroke-width="3.4375" stroke-linecap="butt" stroke-linejoin="round" stroke-miterlimit="10" stroke-opacity="1" fill="#4472C4" fill-rule="nonzero" fill-opacity="1"/><path d="M2263.17 293.375C2263.17 299.45 2258.24 304.374 2252.17 304.374 2246.09 304.374 2241.17 299.45 2241.17 293.375 2241.17 287.3 2246.09 282.375 2252.17 282.375 2258.24 282.375 2263.17 287.3 2263.17 293.375Z" stroke="#4472C4" stroke-width="3.4375" stroke-linecap="butt" stroke-linejoin="round" stroke-miterlimit="10" stroke-opacity="1" fill="#4472C4" fill-rule="nonzero" fill-opacity="1"/><path d="M2372.17 379.375C2372.17 385.45 2367.24 390.374 2361.17 390.374 2355.09 390.374 2350.17 385.45 2350.17 379.375 2350.17 373.3 2355.09 368.375 2361.17 368.375 2367.24 368.375 2372.17 373.3 2372.17 379.375Z" stroke="#4472C4" stroke-width="3.4375" stroke-linecap="butt" stroke-linejoin="round" stroke-miterlimit="10" stroke-opacity="1" fill="#4472C4" fill-rule="nonzero" fill-opacity="1"/><path d="M2481.17 482.375C2481.17 488.45 2476.24 493.375 2470.17 493.375 2464.09 493.375 2459.17 488.45 2459.17 482.375 2459.17 476.3 2464.09 471.375 2470.17 471.375 2476.24 471.375 2481.17 476.3 2481.17 482.375Z" stroke="#4472C4" stroke-width="3.4375" stroke-linecap="butt" stroke-linejoin="round" stroke-miterlimit="10" stroke-opacity="1" fill="#4472C4" fill-rule="nonzero" fill-opacity="1"/><path d="M2589.17 600.375C2589.17 606.45 2584.24 611.374 2578.17 611.374 2572.09 611.374 2567.17 606.45 2567.17 600.375 2567.17 594.3 2572.09 589.375 2578.17 589.375 2584.24 589.375 2589.17 594.3 2589.17 600.375Z" stroke="#4472C4" stroke-width="3.4375" stroke-linecap="butt" stroke-linejoin="round" stroke-miterlimit="10" stroke-opacity="1" fill="#4472C4" fill-rule="nonzero" fill-opacity="1"/><path d="M2698.17 702.375C2698.17 708.45 2693.24 713.375 2687.17 713.375 2681.09 713.375 2676.17 708.45 2676.17 702.375 2676.17 696.3 2681.09 691.375 2687.17 691.375 2693.24 691.375 2698.17 696.3 2698.17 702.375Z" stroke="#4472C4" stroke-width="3.4375" stroke-linecap="butt" stroke-linejoin="round" stroke-miterlimit="10" stroke-opacity="1" fill="#4472C4" fill-rule="nonzero" fill-opacity="1"/><path d="M2807.17 655.375C2807.17 661.45 2802.24 666.374 2796.17 666.374 2790.09 666.374 2785.17 661.45 2785.17 655.375 2785.17 649.3 2790.09 644.375 2796.17 644.375 2802.24 644.375 2807.17 649.3 2807.17 655.375Z" stroke="#4472C4" stroke-width="3.4375" stroke-linecap="butt" stroke-linejoin="round" stroke-miterlimit="10" stroke-opacity="1" fill="#4472C4" fill-rule="nonzero" fill-opacity="1"/><path d="M2916.17 742.375C2916.17 748.45 2911.24 753.374 2905.17 753.374 2899.09 753.374 2894.17 748.45 2894.17 742.375 2894.17 736.3 2899.09 731.375 2905.17 731.375 2911.24 731.375 2916.17 736.3 2916.17 742.375Z" stroke="#4472C4" stroke-width="3.4375" stroke-linecap="butt" stroke-linejoin="round" stroke-miterlimit="10" stroke-opacity="1" fill="#4472C4" fill-rule="nonzero" fill-opacity="1"/><path d="M3025.17 876.375C3025.17 882.45 3020.24 887.374 3014.17 887.374 3008.09 887.374 3003.17 882.45 3003.17 876.375 3003.17 870.3 3008.09 865.375 3014.17 865.375 3020.24 865.375 3025.17 870.3 3025.17 876.375Z" stroke="#4472C4" stroke-width="3.4375" stroke-linecap="butt" stroke-linejoin="round" stroke-miterlimit="10" stroke-opacity="1" fill="#4472C4" fill-rule="nonzero" fill-opacity="1"/></g><g clip-path="url(#clip5)"><path d="M1817 908.03 1926.06 861.028 2035.07 908.03 2143.07 853.028 2252.07 758 2361.08 782.026 2470.08 774.025 2579.08 797.026 2688.09 900.029 2797.09 774.025 2905.1 924 3014 892.029" stroke="#ED7D31" stroke-width="10.3125" stroke-linecap="round" stroke-linejoin="round" stroke-miterlimit="10" stroke-opacity="1" fill="none" fill-rule="nonzero"/></g><g clip-path="url(#clip6)"><path d="M1827.17 907.375C1827.17 913.45 1822.24 918.374 1816.17 918.374 1810.09 918.374 1805.17 913.45 1805.17 907.375 1805.17 901.3 1810.09 896.375 1816.17 896.375 1822.24 896.375 1827.17 901.3 1827.17 907.375Z" stroke="#ED7D31" stroke-width="3.4375" stroke-linecap="butt" stroke-linejoin="round" stroke-miterlimit="10" stroke-opacity="1" fill="#ED7D31" fill-rule="nonzero" fill-opacity="1"/><path d="M1936.17 860.375C1936.17 866.45 1931.24 871.374 1925.17 871.374 1919.09 871.374 1914.17 866.45 1914.17 860.375 1914.17 854.3 1919.09 849.375 1925.17 849.375 1931.24 849.375 1936.17 854.3 1936.17 860.375Z" stroke="#ED7D31" stroke-width="3.4375" stroke-linecap="butt" stroke-linejoin="round" stroke-miterlimit="10" stroke-opacity="1" fill="#ED7D31" fill-rule="nonzero" fill-opacity="1"/><path d="M2045.17 907.375C2045.17 913.45 2040.24 918.374 2034.17 918.374 2028.09 918.374 2023.17 913.45 2023.17 907.375 2023.17 901.3 2028.09 896.375 2034.17 896.375 2040.24 896.375 2045.17 901.3 2045.17 907.375Z" stroke="#ED7D31" stroke-width="3.4375" stroke-linecap="butt" stroke-linejoin="round" stroke-miterlimit="10" stroke-opacity="1" fill="#ED7D31" fill-rule="nonzero" fill-opacity="1"/><path d="M2154.17 852.375C2154.17 858.45 2149.24 863.374 2143.17 863.374 2137.09 863.374 2132.17 858.45 2132.17 852.375 2132.17 846.3 2137.09 841.375 2143.17 841.375 2149.24 841.375 2154.17 846.3 2154.17 852.375Z" stroke="#ED7D31" stroke-width="3.4375" stroke-linecap="butt" stroke-linejoin="round" stroke-miterlimit="10" stroke-opacity="1" fill="#ED7D31" fill-rule="nonzero" fill-opacity="1"/><path d="M2263.17 758.375C2263.17 764.45 2258.24 769.375 2252.17 769.375 2246.09 769.375 2241.17 764.45 2241.17 758.375 2241.17 752.3 2246.09 747.375 2252.17 747.375 2258.24 747.375 2263.17 752.3 2263.17 758.375Z" stroke="#ED7D31" stroke-width="3.4375" stroke-linecap="butt" stroke-linejoin="round" stroke-miterlimit="10" stroke-opacity="1" fill="#ED7D31" fill-rule="nonzero" fill-opacity="1"/><path d="M2372.17 781.375C2372.17 787.45 2367.24 792.375 2361.17 792.375 2355.09 792.375 2350.17 787.45 2350.17 781.375 2350.17 775.3 2355.09 770.375 2361.17 770.375 2367.24 770.375 2372.17 775.3 2372.17 781.375Z" stroke="#ED7D31" stroke-width="3.4375" stroke-linecap="butt" stroke-linejoin="round" stroke-miterlimit="10" stroke-opacity="1" fill="#ED7D31" fill-rule="nonzero" fill-opacity="1"/><path d="M2481.17 773.375C2481.17 779.45 2476.24 784.374 2470.17 784.374 2464.09 784.374 2459.17 779.45 2459.17 773.375 2459.17 767.3 2464.09 762.375 2470.17 762.375 2476.24 762.375 2481.17 767.3 2481.17 773.375Z" stroke="#ED7D31" stroke-width="3.4375" stroke-linecap="butt" stroke-linejoin="round" stroke-miterlimit="10" stroke-opacity="1" fill="#ED7D31" fill-rule="nonzero" fill-opacity="1"/><path d="M2589.17 797.375C2589.17 803.45 2584.24 808.374 2578.17 808.374 2572.09 808.374 2567.17 803.45 2567.17 797.375 2567.17 791.3 2572.09 786.375 2578.17 786.375 2584.24 786.375 2589.17 791.3 2589.17 797.375Z" stroke="#ED7D31" stroke-width="3.4375" stroke-linecap="butt" stroke-linejoin="round" stroke-miterlimit="10" stroke-opacity="1" fill="#ED7D31" fill-rule="nonzero" fill-opacity="1"/><path d="M2698.17 899.375C2698.17 905.45 2693.24 910.375 2687.17 910.375 2681.09 910.375 2676.17 905.45 2676.17 899.375 2676.17 893.3 2681.09 888.375 2687.17 888.375 2693.24 888.375 2698.17 893.3 2698.17 899.375Z" stroke="#ED7D31" stroke-width="3.4375" stroke-linecap="butt" stroke-linejoin="round" stroke-miterlimit="10" stroke-opacity="1" fill="#ED7D31" fill-rule="nonzero" fill-opacity="1"/><path d="M2807.17 773.375C2807.17 779.45 2802.24 784.374 2796.17 784.374 2790.09 784.374 2785.17 779.45 2785.17 773.375 2785.17 767.3 2790.09 762.375 2796.17 762.375 2802.24 762.375 2807.17 767.3 2807.17 773.375Z" stroke="#ED7D31" stroke-width="3.4375" stroke-linecap="butt" stroke-linejoin="round" stroke-miterlimit="10" stroke-opacity="1" fill="#ED7D31" fill-rule="nonzero" fill-opacity="1"/><path d="M2916.17 923.375C2916.17 929.45 2911.24 934.375 2905.17 934.375 2899.09 934.375 2894.17 929.45 2894.17 923.375 2894.17 917.3 2899.09 912.375 2905.17 912.375 2911.24 912.375 2916.17 917.3 2916.17 923.375Z" stroke="#ED7D31" stroke-width="3.4375" stroke-linecap="butt" stroke-linejoin="round" stroke-miterlimit="10" stroke-opacity="1" fill="#ED7D31" fill-rule="nonzero" fill-opacity="1"/><path d="M3025.17 892.375C3025.17 898.45 3020.24 903.374 3014.17 903.374 3008.09 903.374 3003.17 898.45 3003.17 892.375 3003.17 886.3 3008.09 881.375 3014.17 881.375 3020.24 881.375 3025.17 886.3 3025.17 892.375Z" stroke="#ED7D31" stroke-width="3.4375" stroke-linecap="butt" stroke-linejoin="round" stroke-miterlimit="10" stroke-opacity="1" fill="#ED7D31" fill-rule="nonzero" fill-opacity="1"/></g><g clip-path="url(#clip7)"><path d="M1817 1113 1926.06 1144.04 2035.07 1144.04 2143.07 1152.04 2252.07 1144.04 2361.08 1136.04 2470.08 1160 2579.08 1136.04 2688.09 1136.04M2905.1 1144.04 3014 1144.04" stroke="#A5A5A5" stroke-width="10.3125" stroke-linecap="round" stroke-linejoin="round" stroke-miterlimit="10" stroke-opacity="1" fill="none" fill-rule="nonzero"/></g><g clip-path="url(#clip8)"><path d="M1827.17 1112.37C1827.17 1118.45 1822.24 1123.37 1816.17 1123.37 1810.09 1123.37 1805.17 1118.45 1805.17 1112.37 1805.17 1106.3 1810.09 1101.38 1816.17 1101.38 1822.24 1101.38 1827.17 1106.3 1827.17 1112.37Z" stroke="#A5A5A5" stroke-width="3.4375" stroke-linecap="butt" stroke-linejoin="round" stroke-miterlimit="10" stroke-opacity="1" fill="#A5A5A5" fill-rule="nonzero" fill-opacity="1"/><path d="M1936.17 1144.38C1936.17 1150.45 1931.24 1155.37 1925.17 1155.37 1919.09 1155.37 1914.17 1150.45 1914.17 1144.38 1914.17 1138.3 1919.09 1133.38 1925.17 1133.38 1931.24 1133.38 1936.17 1138.3 1936.17 1144.38Z" stroke="#A5A5A5" stroke-width="3.4375" stroke-linecap="butt" stroke-linejoin="round" stroke-miterlimit="10" stroke-opacity="1" fill="#A5A5A5" fill-rule="nonzero" fill-opacity="1"/><path d="M2045.17 1144.38C2045.17 1150.45 2040.24 1155.37 2034.17 1155.37 2028.09 1155.37 2023.17 1150.45 2023.17 1144.38 2023.17 1138.3 2028.09 1133.38 2034.17 1133.38 2040.24 1133.38 2045.17 1138.3 2045.17 1144.38Z" stroke="#A5A5A5" stroke-width="3.4375" stroke-linecap="butt" stroke-linejoin="round" stroke-miterlimit="10" stroke-opacity="1" fill="#A5A5A5" fill-rule="nonzero" fill-opacity="1"/><path d="M2154.17 1152.37C2154.17 1158.45 2149.24 1163.37 2143.17 1163.37 2137.09 1163.37 2132.17 1158.45 2132.17 1152.37 2132.17 1146.3 2137.09 1141.38 2143.17 1141.38 2149.24 1141.38 2154.17 1146.3 2154.17 1152.37Z" stroke="#A5A5A5" stroke-width="3.4375" stroke-linecap="butt" stroke-linejoin="round" stroke-miterlimit="10" stroke-opacity="1" fill="#A5A5A5" fill-rule="nonzero" fill-opacity="1"/><path d="M2263.17 1144.38C2263.17 1150.45 2258.24 1155.37 2252.17 1155.37 2246.09 1155.37 2241.17 1150.45 2241.17 1144.38 2241.17 1138.3 2246.09 1133.38 2252.17 1133.38 2258.24 1133.38 2263.17 1138.3 2263.17 1144.38Z" stroke="#A5A5A5" stroke-width="3.4375" stroke-linecap="butt" stroke-linejoin="round" stroke-miterlimit="10" stroke-opacity="1" fill="#A5A5A5" fill-rule="nonzero" fill-opacity="1"/><path d="M2372.17 1136.37C2372.17 1142.45 2367.24 1147.37 2361.17 1147.37 2355.09 1147.37 2350.17 1142.45 2350.17 1136.37 2350.17 1130.3 2355.09 1125.38 2361.17 1125.38 2367.24 1125.38 2372.17 1130.3 2372.17 1136.37Z" stroke="#A5A5A5" stroke-width="3.4375" stroke-linecap="butt" stroke-linejoin="round" stroke-miterlimit="10" stroke-opacity="1" fill="#A5A5A5" fill-rule="nonzero" fill-opacity="1"/><path d="M2481.17 1159.37C2481.17 1165.45 2476.24 1170.37 2470.17 1170.37 2464.09 1170.37 2459.17 1165.45 2459.17 1159.37 2459.17 1153.3 2464.09 1148.38 2470.17 1148.38 2476.24 1148.38 2481.17 1153.3 2481.17 1159.37Z" stroke="#A5A5A5" stroke-width="3.4375" stroke-linecap="butt" stroke-linejoin="round" stroke-miterlimit="10" stroke-opacity="1" fill="#A5A5A5" fill-rule="nonzero" fill-opacity="1"/><path d="M2589.17 1136.37C2589.17 1142.45 2584.24 1147.37 2578.17 1147.37 2572.09 1147.37 2567.17 1142.45 2567.17 1136.37 2567.17 1130.3 2572.09 1125.38 2578.17 1125.38 2584.24 1125.38 2589.17 1130.3 2589.17 1136.37Z" stroke="#A5A5A5" stroke-width="3.4375" stroke-linecap="butt" stroke-linejoin="round" stroke-miterlimit="10" stroke-opacity="1" fill="#A5A5A5" fill-rule="nonzero" fill-opacity="1"/><path d="M2698.17 1136.37C2698.17 1142.45 2693.24 1147.37 2687.17 1147.37 2681.09 1147.37 2676.17 1142.45 2676.17 1136.37 2676.17 1130.3 2681.09 1125.38 2687.17 1125.38 2693.24 1125.38 2698.17 1130.3 2698.17 1136.37Z" stroke="#A5A5A5" stroke-width="3.4375" stroke-linecap="butt" stroke-linejoin="round" stroke-miterlimit="10" stroke-opacity="1" fill="#A5A5A5" fill-rule="nonzero" fill-opacity="1"/><path d="M2916.17 1144.38C2916.17 1150.45 2911.24 1155.37 2905.17 1155.37 2899.09 1155.37 2894.17 1150.45 2894.17 1144.38 2894.17 1138.3 2899.09 1133.38 2905.17 1133.38 2911.24 1133.38 2916.17 1138.3 2916.17 1144.38Z" stroke="#A5A5A5" stroke-width="3.4375" stroke-linecap="butt" stroke-linejoin="round" stroke-miterlimit="10" stroke-opacity="1" fill="#A5A5A5" fill-rule="nonzero" fill-opacity="1"/><path d="M3025.17 1144.38C3025.17 1150.45 3020.24 1155.37 3014.17 1155.37 3008.09 1155.37 3003.17 1150.45 3003.17 1144.38 3003.17 1138.3 3008.09 1133.38 3014.17 1133.38 3020.24 1133.38 3025.17 1138.3 3025.17 1144.38Z" stroke="#A5A5A5" stroke-width="3.4375" stroke-linecap="butt" stroke-linejoin="round" stroke-miterlimit="10" stroke-opacity="1" fill="#A5A5A5" fill-rule="nonzero" fill-opacity="1"/></g><g clip-path="url(#clip9)"><text fill="#595959" fill-opacity="1" font-family="Calibri,Calibri_MSFontService,sans-serif" font-style="normal" font-variant="normal" font-weight="400" font-stretch="normal" font-size="41" text-anchor="start" direction="ltr" writing-mode="lr-tb" unicode-bidi="normal" text-decoration="none" transform="matrix(1 0 0 1 1703.26 1178)">0</text></g><g clip-path="url(#clip10)"><text fill="#595959" fill-opacity="1" font-family="Calibri,Calibri_MSFontService,sans-serif" font-style="normal" font-variant="normal" font-weight="400" font-stretch="normal" font-size="41" text-anchor="start" direction="ltr" writing-mode="lr-tb" unicode-bidi="normal" text-decoration="none" transform="matrix(1 0 0 1 1682.36 1021)">20</text></g><g clip-path="url(#clip11)"><text fill="#595959" fill-opacity="1" font-family="Calibri,Calibri_MSFontService,sans-serif" font-style="normal" font-variant="normal" font-weight="400" font-stretch="normal" font-size="41" text-anchor="start" direction="ltr" writing-mode="lr-tb" unicode-bidi="normal" text-decoration="none" transform="matrix(1 0 0 1 1682.36 863)">40</text></g><g clip-path="url(#clip12)"><text fill="#595959" fill-opacity="1" font-family="Calibri,Calibri_MSFontService,sans-serif" font-style="normal" font-variant="normal" font-weight="400" font-stretch="normal" font-size="41" text-anchor="start" direction="ltr" writing-mode="lr-tb" unicode-bidi="normal" text-decoration="none" transform="matrix(1 0 0 1 1682.36 706)">60</text></g><g clip-path="url(#clip13)"><text fill="#595959" fill-opacity="1" font-family="Calibri,Calibri_MSFontService,sans-serif" font-style="normal" font-variant="normal" font-weight="400" font-stretch="normal" font-size="41" text-anchor="start" direction="ltr" writing-mode="lr-tb" unicode-bidi="normal" text-decoration="none" transform="matrix(1 0 0 1 1682.36 548)">80</text></g><g clip-path="url(#clip14)"><text fill="#595959" fill-opacity="1" font-family="Calibri,Calibri_MSFontService,sans-serif" font-style="normal" font-variant="normal" font-weight="400" font-stretch="normal" font-size="41" text-anchor="start" direction="ltr" writing-mode="lr-tb" unicode-bidi="normal" text-decoration="none" transform="matrix(1 0 0 1 1661.46 390)">100</text></g><g clip-path="url(#clip15)"><text fill="#595959" fill-opacity="1" font-family="Calibri,Calibri_MSFontService,sans-serif" font-style="normal" font-variant="normal" font-weight="400" font-stretch="normal" font-size="41" text-anchor="start" direction="ltr" writing-mode="lr-tb" unicode-bidi="normal" text-decoration="none" transform="matrix(1 0 0 1 1661.46 233)">120</text></g><g clip-path="url(#clip16)"><text fill="#595959" fill-opacity="1" font-family="Calibri,Calibri_MSFontService,sans-serif" font-style="normal" font-variant="normal" font-weight="400" font-stretch="normal" font-size="41" text-anchor="start" direction="ltr" writing-mode="lr-tb" unicode-bidi="normal" text-decoration="none" transform="matrix(1 0 0 1 1789.55 1233)">Jan</text></g><g clip-path="url(#clip17)"><text fill="#595959" fill-opacity="1" font-family="Calibri,Calibri_MSFontService,sans-serif" font-style="normal" font-variant="normal" font-weight="400" font-stretch="normal" font-size="41" text-anchor="start" direction="ltr" writing-mode="lr-tb" unicode-bidi="normal" text-decoration="none" transform="matrix(1 0 0 1 1895.14 1233)">Feb</text></g><g clip-path="url(#clip18)"><text fill="#595959" fill-opacity="1" font-family="Calibri,Calibri_MSFontService,sans-serif" font-style="normal" font-variant="normal" font-weight="400" font-stretch="normal" font-size="41" text-anchor="start" direction="ltr" writing-mode="lr-tb" unicode-bidi="normal" text-decoration="none" transform="matrix(1 0 0 1 1999.89 1233)">Mar</text></g><g clip-path="url(#clip19)"><text fill="#595959" fill-opacity="1" font-family="Calibri,Calibri_MSFontService,sans-serif" font-style="normal" font-variant="normal" font-weight="400" font-stretch="normal" font-size="41" text-anchor="start" direction="ltr" writing-mode="lr-tb" unicode-bidi="normal" text-decoration="none" transform="matrix(1 0 0 1 2113.49 1233)">Apr</text></g><g clip-path="url(#clip20)"><text fill="#595959" fill-opacity="1" font-family="Calibri,Calibri_MSFontService,sans-serif" font-style="normal" font-variant="normal" font-weight="400" font-stretch="normal" font-size="41" text-anchor="start" direction="ltr" writing-mode="lr-tb" unicode-bidi="normal" text-decoration="none" transform="matrix(1 0 0 1 2215.49 1233)">May</text></g><g clip-path="url(#clip21)"><text fill="#595959" fill-opacity="1" font-family="Calibri,Calibri_MSFontService,sans-serif" font-style="normal" font-variant="normal" font-weight="400" font-stretch="normal" font-size="41" text-anchor="start" direction="ltr" writing-mode="lr-tb" unicode-bidi="normal" text-decoration="none" transform="matrix(1 0 0 1 2332.96 1233)">Jun</text></g><g clip-path="url(#clip22)"><text fill="#595959" fill-opacity="1" font-family="Calibri,Calibri_MSFontService,sans-serif" font-style="normal" font-variant="normal" font-weight="400" font-stretch="normal" font-size="41" text-anchor="start" direction="ltr" writing-mode="lr-tb" unicode-bidi="normal" text-decoration="none" transform="matrix(1 0 0 1 2447.95 1233)">Jul</text></g><g clip-path="url(#clip23)"><text fill="#595959" fill-opacity="1" font-family="Calibri,Calibri_MSFontService,sans-serif" font-style="normal" font-variant="normal" font-weight="400" font-stretch="normal" font-size="41" text-anchor="start" direction="ltr" writing-mode="lr-tb" unicode-bidi="normal" text-decoration="none" transform="matrix(1 0 0 1 2546.49 1233)">Aug</text></g><g clip-path="url(#clip24)"><text fill="#595959" fill-opacity="1" font-family="Calibri,Calibri_MSFontService,sans-serif" font-style="normal" font-variant="normal" font-weight="400" font-stretch="normal" font-size="41" text-anchor="start" direction="ltr" writing-mode="lr-tb" unicode-bidi="normal" text-decoration="none" transform="matrix(1 0 0 1 2657.26 1233)">Sep</text></g><g clip-path="url(#clip25)"><text fill="#595959" fill-opacity="1" font-family="Calibri,Calibri_MSFontService,sans-serif" font-style="normal" font-variant="normal" font-weight="400" font-stretch="normal" font-size="41" text-anchor="start" direction="ltr" writing-mode="lr-tb" unicode-bidi="normal" text-decoration="none" transform="matrix(1 0 0 1 2767.43 1233)">Oct</text></g><g clip-path="url(#clip26)"><text fill="#595959" fill-opacity="1" font-family="Calibri,Calibri_MSFontService,sans-serif" font-style="normal" font-variant="normal" font-weight="400" font-stretch="normal" font-size="41" text-anchor="start" direction="ltr" writing-mode="lr-tb" unicode-bidi="normal" text-decoration="none" transform="matrix(1 0 0 1 2872.09 1233)">Nov</text></g><g clip-path="url(#clip27)"><text fill="#595959" fill-opacity="1" font-family="Calibri,Calibri_MSFontService,sans-serif" font-style="normal" font-variant="normal" font-weight="400" font-stretch="normal" font-size="41" text-anchor="start" direction="ltr" writing-mode="lr-tb" unicode-bidi="normal" text-decoration="none" transform="matrix(1 0 0 1 2982.8 1233)">Dec</text></g><g clip-path="url(#clip28)"><text fill="#595959" fill-opacity="1" font-family="Calibri,Calibri_MSFontService,sans-serif" font-style="normal" font-variant="normal" font-weight="400" font-stretch="normal" font-size="64" text-anchor="start" direction="ltr" writing-mode="lr-tb" unicode-bidi="normal" text-decoration="none" transform="matrix(1 0 0 1 2170.51 267)">Theater Outcomes vs Launch</text></g><g clip-path="url(#clip29)"><path d="M3141 647 3229 647" stroke="#4472C4" stroke-width="10.3125" stroke-linecap="round" stroke-linejoin="round" stroke-miterlimit="10" stroke-opacity="1" fill="none" fill-rule="evenodd"/></g><g clip-path="url(#clip30)"><path d="M3195 647C3195 653.075 3190.07 658 3184 658 3177.93 658 3173 653.075 3173 647 3173 640.925 3177.93 636 3184 636 3190.07 636 3195 640.925 3195 647Z" stroke="#4472C4" stroke-width="3.4375" stroke-linecap="butt" stroke-linejoin="round" stroke-miterlimit="10" stroke-opacity="1" fill="#4472C4" fill-rule="nonzero" fill-opacity="1"/></g><g clip-path="url(#clip31)"><text fill="#595959" fill-opacity="1" font-family="Calibri,Calibri_MSFontService,sans-serif" font-style="normal" font-variant="normal" font-weight="400" font-stretch="normal" font-size="41" text-anchor="start" direction="ltr" writing-mode="lr-tb" unicode-bidi="normal" text-decoration="none" transform="matrix(1 0 0 1 3237.92 658)">successful</text></g><g clip-path="url(#clip32)"><path d="M3141 725 3229 725" stroke="#ED7D31" stroke-width="10.3125" stroke-linecap="round" stroke-linejoin="round" stroke-miterlimit="10" stroke-opacity="1" fill="none" fill-rule="evenodd"/></g><g clip-path="url(#clip33)"><path d="M3195 724C3195 730.075 3190.07 735 3184 735 3177.93 735 3173 730.075 3173 724 3173 717.925 3177.93 713 3184 713 3190.07 713 3195 717.925 3195 724Z" stroke="#ED7D31" stroke-width="3.4375" stroke-linecap="butt" stroke-linejoin="round" stroke-miterlimit="10" stroke-opacity="1" fill="#ED7D31" fill-rule="nonzero" fill-opacity="1"/></g><g clip-path="url(#clip34)"><text fill="#595959" fill-opacity="1" font-family="Calibri,Calibri_MSFontService,sans-serif" font-style="normal" font-variant="normal" font-weight="400" font-stretch="normal" font-size="41" text-anchor="start" direction="ltr" writing-mode="lr-tb" unicode-bidi="normal" text-decoration="none" transform="matrix(1 0 0 1 3237.92 735)">failed</text></g><g clip-path="url(#clip35)"><path d="M3141 802 3229 802" stroke="#A5A5A5" stroke-width="10.3125" stroke-linecap="round" stroke-linejoin="round" stroke-miterlimit="10" stroke-opacity="1" fill="none" fill-rule="evenodd"/></g><g clip-path="url(#clip36)"><path d="M3195 802C3195 808.075 3190.07 813 3184 813 3177.93 813 3173 808.075 3173 802 3173 795.925 3177.93 791 3184 791 3190.07 791 3195 795.925 3195 802Z" stroke="#A5A5A5" stroke-width="3.4375" stroke-linecap="butt" stroke-linejoin="round" stroke-miterlimit="10" stroke-opacity="1" fill="#A5A5A5" fill-rule="nonzero" fill-opacity="1"/></g><g clip-path="url(#clip37)"><text fill="#595959" fill-opacity="1" font-family="Calibri,Calibri_MSFontService,sans-serif" font-style="normal" font-variant="normal" font-weight="400" font-stretch="normal" font-size="41" text-anchor="start" direction="ltr" writing-mode="lr-tb" unicode-bidi="normal" text-decoration="none" transform="matrix(1 0 0 1 3237.92 813)">canceled</text></g><rect x="1632.5" y="172.5" width="1828" height="1102" stroke="#D9D9D9" stroke-width="3.4375" stroke-linecap="butt" stroke-linejoin="round" stroke-miterlimit="10" stroke-opacity="1" fill="none"/></g></svg>